<?xml version="1.0" encoding="UTF-8" standalone="no"?>
<!-- Created with qrencode 3.4.2 (http://fukuchi.org/works/qrencode/index.html.en) -->

<svg
   xmlns:dc="http://purl.org/dc/elements/1.1/"
   xmlns:cc="http://creativecommons.org/ns#"
   xmlns:rdf="http://www.w3.org/1999/02/22-rdf-syntax-ns#"
   xmlns:svg="http://www.w3.org/2000/svg"
   xmlns="http://www.w3.org/2000/svg"
   xmlns:sodipodi="http://sodipodi.sourceforge.net/DTD/sodipodi-0.dtd"
   xmlns:inkscape="http://www.inkscape.org/namespaces/inkscape"
   width="3.07cm"
   height="3.07cm"
   viewBox="0 0 29 29"
   preserveAspectRatio="none"
   version="1.1"
   id="svg9795"
   inkscape:version="0.48.4 r9939"
   sodipodi:docname="qr-pentandra.svg">
  <metadata
     id="metadata10241">
    <rdf:RDF>
      <cc:Work
         rdf:about="">
        <dc:format>image/svg+xml</dc:format>
        <dc:type
           rdf:resource="http://purl.org/dc/dcmitype/StillImage" />
      </cc:Work>
    </rdf:RDF>
  </metadata>
  <defs
     id="defs10239" />
  <sodipodi:namedview
     pagecolor="#ffffff"
     bordercolor="#666666"
     borderopacity="1"
     objecttolerance="10"
     gridtolerance="10"
     guidetolerance="10"
     inkscape:pageopacity="0"
     inkscape:pageshadow="2"
     inkscape:window-width="1362"
     inkscape:window-height="747"
     id="namedview10237"
     showgrid="false"
     inkscape:zoom="5.1610988"
     inkscape:cx="54.389763"
     inkscape:cy="54.389763"
     inkscape:window-x="1680"
     inkscape:window-y="17"
     inkscape:window-maximized="0"
     inkscape:current-layer="svg9795" />
  <path
     style="fill:#000000"
     d="M 0 0 L 0 3.75 L 0 7.5 L 0 11.25 L 0 15 L 0 18.75 L 0 22.5 L 0 26.25 L 26.25 26.25 L 26.25 22.5 L 26.25 18.75 L 26.25 15 L 26.25 11.25 L 26.25 7.5 L 26.25 3.75 L 26.25 0 L 0 0 z M 33.75 0 L 33.75 3.75 L 33.75 7.5 L 33.75 11.25 L 37.5 11.25 L 37.5 7.5 L 41.25 7.5 L 41.25 11.25 L 45 11.25 L 45 7.5 L 45 3.75 L 37.5 3.75 L 37.5 0 L 33.75 0 z M 45 3.75 L 52.5 3.75 L 52.5 0 L 45 0 L 45 3.75 z M 45 11.25 L 45 15 L 45 18.75 L 45 22.5 L 45 26.25 L 45 30 L 48.75 30 L 48.75 33.75 L 56.25 33.75 L 56.25 30 L 52.5 30 L 52.5 26.25 L 48.75 26.25 L 48.75 22.5 L 48.75 18.75 L 52.5 18.75 L 52.5 15 L 48.75 15 L 48.75 11.25 L 45 11.25 z M 48.75 11.25 L 52.5 11.25 L 52.5 7.5 L 48.75 7.5 L 48.75 11.25 z M 52.5 11.25 L 52.5 15 L 56.25 15 L 56.25 18.75 L 56.25 22.5 L 60.03125 22.5 L 60.03125 18.75 L 63.78125 18.75 L 63.78125 15 L 60.03125 15 L 60.03125 11.25 L 63.78125 11.25 L 63.78125 7.5 L 71.28125 7.5 L 71.28125 3.75 L 63.78125 3.75 L 63.78125 0 L 60.03125 0 L 60.03125 3.75 L 60.03125 7.5 L 56.25 7.5 L 56.25 11.25 L 52.5 11.25 z M 71.28125 7.5 L 71.28125 11.25 L 75.03125 11.25 L 75.03125 7.5 L 71.28125 7.5 z M 75.03125 11.25 L 75.03125 15 L 78.78125 15 L 78.78125 11.25 L 75.03125 11.25 z M 75.03125 15 L 71.28125 15 L 71.28125 18.75 L 63.78125 18.75 L 63.78125 22.5 L 67.53125 22.5 L 67.53125 26.25 L 71.28125 26.25 L 71.28125 22.5 L 75.03125 22.5 L 75.03125 18.75 L 75.03125 15 z M 75.03125 22.5 L 75.03125 26.25 L 78.78125 26.25 L 78.78125 22.5 L 75.03125 22.5 z M 75.03125 26.25 L 71.28125 26.25 L 71.28125 30 L 75.03125 30 L 75.03125 26.25 z M 71.28125 30 L 67.53125 30 L 67.53125 33.75 L 63.78125 33.75 L 63.78125 37.5 L 63.78125 41.25 L 63.78125 45 L 63.78125 48.75 L 71.28125 48.75 L 71.28125 52.5 L 67.53125 52.5 L 67.53125 56.25 L 63.78125 56.25 L 63.78125 60.03125 L 63.78125 63.78125 L 52.5 63.78125 L 52.5 60.03125 L 37.5 60.03125 L 37.5 63.78125 L 41.25 63.78125 L 41.25 67.53125 L 33.75 67.53125 L 33.75 71.28125 L 30 71.28125 L 30 75.03125 L 22.5 75.03125 L 22.5 78.78125 L 30 78.78125 L 30 82.53125 L 30 86.28125 L 33.75 86.28125 L 33.75 82.53125 L 41.25 82.53125 L 41.25 78.78125 L 33.75 78.78125 L 33.75 75.03125 L 37.5 75.03125 L 37.5 71.28125 L 41.25 71.28125 L 41.25 75.03125 L 45 75.03125 L 45 78.78125 L 52.5 78.78125 L 52.5 75.03125 L 48.75 75.03125 L 48.75 71.28125 L 45 71.28125 L 45 67.53125 L 45 63.78125 L 48.75 63.78125 L 48.75 67.53125 L 52.5 67.53125 L 52.5 71.28125 L 63.78125 71.28125 L 63.78125 67.53125 L 67.53125 67.53125 L 67.53125 63.78125 L 67.53125 60.03125 L 71.28125 60.03125 L 71.28125 56.25 L 75.03125 56.25 L 75.03125 60.03125 L 75.03125 63.78125 L 82.53125 63.78125 L 82.53125 60.03125 L 78.78125 60.03125 L 78.78125 56.25 L 82.53125 56.25 L 82.53125 52.5 L 75.03125 52.5 L 75.03125 48.75 L 75.03125 45 L 71.28125 45 L 71.28125 41.25 L 67.53125 41.25 L 67.53125 37.5 L 71.28125 37.5 L 71.28125 33.75 L 71.28125 30 z M 71.28125 37.5 L 71.28125 41.25 L 75.03125 41.25 L 75.03125 45 L 78.78125 45 L 78.78125 48.75 L 82.53125 48.75 L 82.53125 45 L 82.53125 41.25 L 86.28125 41.25 L 86.28125 37.5 L 90.03125 37.5 L 90.03125 41.25 L 93.78125 41.25 L 93.78125 37.5 L 97.53125 37.5 L 97.53125 33.75 L 93.78125 33.75 L 93.78125 30 L 90.03125 30 L 90.03125 33.75 L 86.28125 33.75 L 86.28125 30 L 78.78125 30 L 78.78125 33.75 L 75.03125 33.75 L 75.03125 37.5 L 71.28125 37.5 z M 97.53125 37.5 L 97.53125 41.25 L 105.03125 41.25 L 105.03125 37.5 L 97.53125 37.5 z M 105.03125 37.5 L 108.78125 37.5 L 108.78125 33.75 L 105.03125 33.75 L 105.03125 37.5 z M 105.03125 41.25 L 105.03125 45 L 93.78125 45 L 93.78125 48.75 L 93.78125 52.5 L 90.03125 52.5 L 90.03125 56.25 L 93.78125 56.25 L 93.78125 60.03125 L 86.28125 60.03125 L 86.28125 63.78125 L 86.28125 67.53125 L 90.03125 67.53125 L 90.03125 63.78125 L 93.78125 63.78125 L 93.78125 67.53125 L 97.53125 67.53125 L 97.53125 63.78125 L 97.53125 60.03125 L 97.53125 56.25 L 97.53125 52.5 L 101.28125 52.5 L 101.28125 48.75 L 105.03125 48.75 L 105.03125 52.5 L 101.28125 52.5 L 101.28125 56.25 L 101.28125 60.03125 L 101.28125 63.78125 L 108.78125 63.78125 L 108.78125 60.03125 L 108.78125 56.25 L 108.78125 52.5 L 108.78125 48.75 L 108.78125 45 L 108.78125 41.25 L 105.03125 41.25 z M 97.53125 67.53125 L 97.53125 71.28125 L 90.03125 71.28125 L 90.03125 75.03125 L 86.28125 75.03125 L 86.28125 71.28125 L 86.28125 67.53125 L 82.53125 67.53125 L 82.53125 71.28125 L 78.78125 71.28125 L 78.78125 75.03125 L 75.03125 75.03125 L 75.03125 78.78125 L 75.03125 82.53125 L 67.53125 82.53125 L 67.53125 86.28125 L 75.03125 86.28125 L 75.03125 90.03125 L 75.03125 93.78125 L 75.03125 97.53125 L 78.78125 97.53125 L 78.78125 101.28125 L 82.53125 101.28125 L 82.53125 97.53125 L 82.53125 93.78125 L 90.03125 93.78125 L 90.03125 97.53125 L 93.78125 97.53125 L 93.78125 93.78125 L 97.53125 93.78125 L 97.53125 97.53125 L 105.03125 97.53125 L 105.03125 93.78125 L 105.03125 90.03125 L 108.78125 90.03125 L 108.78125 86.28125 L 105.03125 86.28125 L 105.03125 82.53125 L 108.78125 82.53125 L 108.78125 78.78125 L 108.78125 75.03125 L 105.03125 75.03125 L 105.03125 71.28125 L 101.28125 71.28125 L 101.28125 67.53125 L 97.53125 67.53125 z M 105.03125 97.53125 L 105.03125 101.28125 L 108.78125 101.28125 L 108.78125 97.53125 L 105.03125 97.53125 z M 105.03125 101.28125 L 101.28125 101.28125 L 101.28125 105.03125 L 101.28125 108.78125 L 105.03125 108.78125 L 105.03125 105.03125 L 105.03125 101.28125 z M 82.53125 101.28125 L 82.53125 105.03125 L 86.28125 105.03125 L 86.28125 101.28125 L 82.53125 101.28125 z M 86.28125 105.03125 L 86.28125 108.78125 L 90.03125 108.78125 L 90.03125 105.03125 L 86.28125 105.03125 z M 90.03125 105.03125 L 93.78125 105.03125 L 93.78125 101.28125 L 90.03125 101.28125 L 90.03125 105.03125 z M 82.53125 105.03125 L 78.78125 105.03125 L 78.78125 101.28125 L 75.03125 101.28125 L 75.03125 105.03125 L 75.03125 108.78125 L 82.53125 108.78125 L 82.53125 105.03125 z M 75.03125 101.28125 L 75.03125 97.53125 L 71.28125 97.53125 L 71.28125 101.28125 L 75.03125 101.28125 z M 71.28125 97.53125 L 71.28125 93.78125 L 71.28125 90.03125 L 67.53125 90.03125 L 67.53125 93.78125 L 67.53125 97.53125 L 71.28125 97.53125 z M 75.03125 75.03125 L 75.03125 71.28125 L 71.28125 71.28125 L 71.28125 67.53125 L 67.53125 67.53125 L 67.53125 71.28125 L 67.53125 75.03125 L 75.03125 75.03125 z M 67.53125 75.03125 L 56.25 75.03125 L 56.25 78.78125 L 60.03125 78.78125 L 60.03125 82.53125 L 63.78125 82.53125 L 63.78125 78.78125 L 67.53125 78.78125 L 67.53125 75.03125 z M 71.28125 67.53125 L 75.03125 67.53125 L 75.03125 63.78125 L 71.28125 63.78125 L 71.28125 67.53125 z M 75.03125 67.53125 L 75.03125 71.28125 L 78.78125 71.28125 L 78.78125 67.53125 L 75.03125 67.53125 z M 86.28125 60.03125 L 86.28125 56.25 L 82.53125 56.25 L 82.53125 60.03125 L 86.28125 60.03125 z M 90.03125 52.5 L 90.03125 48.75 L 82.53125 48.75 L 82.53125 52.5 L 90.03125 52.5 z M 33.75 86.28125 L 33.75 90.03125 L 33.75 93.78125 L 30 93.78125 L 30 97.53125 L 30 101.28125 L 33.75 101.28125 L 33.75 97.53125 L 37.5 97.53125 L 37.5 101.28125 L 37.5 105.03125 L 33.75 105.03125 L 33.75 108.78125 L 45 108.78125 L 45 105.03125 L 41.25 105.03125 L 41.25 101.28125 L 41.25 97.53125 L 48.75 97.53125 L 48.75 93.78125 L 48.75 90.03125 L 41.25 90.03125 L 41.25 93.78125 L 37.5 93.78125 L 37.5 90.03125 L 37.5 86.28125 L 33.75 86.28125 z M 48.75 90.03125 L 56.25 90.03125 L 56.25 86.28125 L 52.5 86.28125 L 52.5 82.53125 L 45 82.53125 L 45 86.28125 L 48.75 86.28125 L 48.75 90.03125 z M 56.25 90.03125 L 56.25 93.78125 L 60.03125 93.78125 L 60.03125 90.03125 L 56.25 90.03125 z M 60.03125 90.03125 L 63.78125 90.03125 L 63.78125 86.28125 L 60.03125 86.28125 L 60.03125 90.03125 z M 56.25 93.78125 L 52.5 93.78125 L 52.5 97.53125 L 52.5 101.28125 L 48.75 101.28125 L 48.75 105.03125 L 52.5 105.03125 L 52.5 108.78125 L 60.03125 108.78125 L 60.03125 105.03125 L 56.25 105.03125 L 56.25 101.28125 L 60.03125 101.28125 L 60.03125 97.53125 L 56.25 97.53125 L 56.25 93.78125 z M 30 71.28125 L 30 67.53125 L 33.75 67.53125 L 33.75 63.78125 L 30 63.78125 L 30 60.03125 L 33.75 60.03125 L 33.75 56.25 L 26.25 56.25 L 26.25 60.03125 L 18.75 60.03125 L 18.75 63.78125 L 26.25 63.78125 L 26.25 67.53125 L 22.5 67.53125 L 22.5 71.28125 L 30 71.28125 z M 18.75 60.03125 L 18.75 56.25 L 11.25 56.25 L 11.25 60.03125 L 11.25 63.78125 L 15 63.78125 L 15 60.03125 L 18.75 60.03125 z M 11.25 56.25 L 11.25 52.5 L 18.75 52.5 L 18.75 48.75 L 15 48.75 L 15 45 L 11.25 45 L 11.25 41.25 L 0 41.25 L 0 45 L 7.5 45 L 7.5 48.75 L 0 48.75 L 0 52.5 L 7.5 52.5 L 7.5 56.25 L 11.25 56.25 z M 7.5 56.25 L 0 56.25 L 0 60.03125 L 0 63.78125 L 3.75 63.78125 L 3.75 67.53125 L 7.5 67.53125 L 7.5 63.78125 L 7.5 60.03125 L 7.5 56.25 z M 7.5 67.53125 L 7.5 71.28125 L 15 71.28125 L 15 67.53125 L 7.5 67.53125 z M 3.75 67.53125 L 0 67.53125 L 0 71.28125 L 3.75 71.28125 L 3.75 67.53125 z M 15 45 L 18.75 45 L 18.75 48.75 L 26.25 48.75 L 26.25 45 L 22.5 45 L 22.5 41.25 L 15 41.25 L 15 45 z M 22.5 41.25 L 33.75 41.25 L 33.75 45 L 33.75 48.75 L 33.75 52.5 L 33.75 56.25 L 37.5 56.25 L 37.5 52.5 L 41.25 52.5 L 41.25 48.75 L 37.5 48.75 L 37.5 45 L 45 45 L 45 41.25 L 41.25 41.25 L 41.25 37.5 L 41.25 33.75 L 41.25 30 L 41.25 26.25 L 41.25 22.5 L 37.5 22.5 L 37.5 26.25 L 33.75 26.25 L 33.75 22.5 L 30 22.5 L 30 26.25 L 30 30 L 22.5 30 L 22.5 33.75 L 26.25 33.75 L 26.25 37.5 L 22.5 37.5 L 22.5 41.25 z M 22.5 37.5 L 22.5 33.75 L 15 33.75 L 15 30 L 7.5 30 L 7.5 33.75 L 3.75 33.75 L 3.75 37.5 L 22.5 37.5 z M 45 45 L 45 48.75 L 45 52.5 L 45 56.25 L 52.5 56.25 L 52.5 52.5 L 52.5 48.75 L 60.03125 48.75 L 60.03125 45 L 56.25 45 L 56.25 41.25 L 52.5 41.25 L 52.5 45 L 45 45 z M 56.25 41.25 L 60.03125 41.25 L 60.03125 37.5 L 56.25 37.5 L 56.25 41.25 z M 60.03125 48.75 L 60.03125 52.5 L 56.25 52.5 L 56.25 56.25 L 56.25 60.03125 L 60.03125 60.03125 L 60.03125 56.25 L 63.78125 56.25 L 63.78125 52.5 L 63.78125 48.75 L 60.03125 48.75 z M 26.25 48.75 L 26.25 52.5 L 30 52.5 L 30 48.75 L 26.25 48.75 z M 26.25 52.5 L 18.75 52.5 L 18.75 56.25 L 26.25 56.25 L 26.25 52.5 z M 63.78125 33.75 L 63.78125 30 L 60.03125 30 L 60.03125 33.75 L 63.78125 33.75 z M 60.03125 30 L 60.03125 26.25 L 56.25 26.25 L 56.25 30 L 60.03125 30 z M 56.25 26.25 L 56.25 22.5 L 52.5 22.5 L 52.5 26.25 L 56.25 26.25 z M 60.03125 26.25 L 63.78125 26.25 L 63.78125 22.5 L 60.03125 22.5 L 60.03125 26.25 z M 63.78125 11.25 L 63.78125 15 L 67.53125 15 L 67.53125 11.25 L 63.78125 11.25 z M 48.75 33.75 L 45 33.75 L 45 37.5 L 48.75 37.5 L 48.75 33.75 z M 41.25 11.25 L 37.5 11.25 L 37.5 15 L 41.25 15 L 41.25 11.25 z M 37.5 15 L 30 15 L 30 18.75 L 37.5 18.75 L 37.5 15 z M 82.53125 0 L 82.53125 3.75 L 82.53125 7.5 L 82.53125 11.25 L 82.53125 15 L 82.53125 18.75 L 82.53125 22.5 L 82.53125 26.25 L 108.78125 26.25 L 108.78125 22.5 L 108.78125 18.75 L 108.78125 15 L 108.78125 11.25 L 108.78125 7.5 L 108.78125 3.75 L 108.78125 0 L 82.53125 0 z M 3.75 3.75 L 22.5 3.75 L 22.5 7.5 L 22.5 11.25 L 22.5 15 L 22.5 18.75 L 22.5 22.5 L 3.75 22.5 L 3.75 18.75 L 3.75 15 L 3.75 11.25 L 3.75 7.5 L 3.75 3.75 z M 86.28125 3.75 L 105.03125 3.75 L 105.03125 7.5 L 105.03125 11.25 L 105.03125 15 L 105.03125 18.75 L 105.03125 22.5 L 86.28125 22.5 L 86.28125 18.75 L 86.28125 15 L 86.28125 11.25 L 86.28125 7.5 L 86.28125 3.75 z M 7.5 7.5 L 7.5 11.25 L 7.5 15 L 7.5 18.75 L 18.75 18.75 L 18.75 15 L 18.75 11.25 L 18.75 7.5 L 7.5 7.5 z M 90.03125 7.5 L 90.03125 11.25 L 90.03125 15 L 90.03125 18.75 L 101.28125 18.75 L 101.28125 15 L 101.28125 11.25 L 101.28125 7.5 L 90.03125 7.5 z M 30 33.75 L 33.75 33.75 L 33.75 37.5 L 30 37.5 L 30 33.75 z M 3.75 75.03125 L 3.75 78.78125 L 11.25 78.78125 L 11.25 75.03125 L 3.75 75.03125 z M 78.78125 78.78125 L 90.03125 78.78125 L 90.03125 82.53125 L 90.03125 86.28125 L 90.03125 90.03125 L 78.78125 90.03125 L 78.78125 86.28125 L 78.78125 82.53125 L 78.78125 78.78125 z M 97.53125 78.78125 L 101.28125 78.78125 L 101.28125 82.53125 L 97.53125 82.53125 L 97.53125 86.28125 L 101.28125 86.28125 L 101.28125 90.03125 L 93.78125 90.03125 L 93.78125 86.28125 L 93.78125 82.53125 L 97.53125 82.53125 L 97.53125 78.78125 z M 0 82.53125 L 0 86.28125 L 0 90.03125 L 0 93.78125 L 0 97.53125 L 0 101.28125 L 0 105.03125 L 0 108.78125 L 26.25 108.78125 L 26.25 105.03125 L 26.25 101.28125 L 26.25 97.53125 L 26.25 93.78125 L 26.25 90.03125 L 26.25 86.28125 L 26.25 82.53125 L 0 82.53125 z M 82.53125 82.53125 L 82.53125 86.28125 L 86.28125 86.28125 L 86.28125 82.53125 L 82.53125 82.53125 z M 3.75 86.28125 L 22.5 86.28125 L 22.5 90.03125 L 22.5 93.78125 L 22.5 97.53125 L 22.5 101.28125 L 22.5 105.03125 L 3.75 105.03125 L 3.75 101.28125 L 3.75 97.53125 L 3.75 93.78125 L 3.75 90.03125 L 3.75 86.28125 z M 7.5 90.03125 L 7.5 93.78125 L 7.5 97.53125 L 7.5 101.28125 L 18.75 101.28125 L 18.75 97.53125 L 18.75 93.78125 L 18.75 90.03125 L 7.5 90.03125 z M 63.78125 105.03125 L 63.78125 108.78125 L 71.28125 108.78125 L 71.28125 105.03125 L 63.78125 105.03125 z "
     transform="scale(0.26659429,0.26659429)"
     id="rect9801" />
</svg>
