<?xml version="1.0" encoding="UTF-8" standalone="no"?>
<!-- Created with qrencode 3.4.2 (http://fukuchi.org/works/qrencode/index.html.en) -->

<svg
   xmlns:dc="http://purl.org/dc/elements/1.1/"
   xmlns:cc="http://creativecommons.org/ns#"
   xmlns:rdf="http://www.w3.org/1999/02/22-rdf-syntax-ns#"
   xmlns:svg="http://www.w3.org/2000/svg"
   xmlns="http://www.w3.org/2000/svg"
   xmlns:sodipodi="http://sodipodi.sourceforge.net/DTD/sodipodi-0.dtd"
   xmlns:inkscape="http://www.inkscape.org/namespaces/inkscape"
   width="4.34cm"
   height="4.34cm"
   viewBox="0 0 41 41"
   preserveAspectRatio="none"
   version="1.1"
   id="svg15144"
   inkscape:version="0.48.4 r9939"
   sodipodi:docname="qr-roc.svg">
  <metadata
     id="metadata15730">
    <rdf:RDF>
      <cc:Work
         rdf:about="">
        <dc:format>image/svg+xml</dc:format>
        <dc:type
           rdf:resource="http://purl.org/dc/dcmitype/StillImage" />
      </cc:Work>
    </rdf:RDF>
  </metadata>
  <defs
     id="defs15728" />
  <sodipodi:namedview
     pagecolor="#ffffff"
     bordercolor="#666666"
     borderopacity="1"
     objecttolerance="10"
     gridtolerance="10"
     guidetolerance="10"
     inkscape:pageopacity="0"
     inkscape:pageshadow="2"
     inkscape:window-width="1362"
     inkscape:window-height="747"
     id="namedview15726"
     showgrid="false"
     borderlayer="true"
     inkscape:zoom="3.2102594"
     inkscape:cx="61.830708"
     inkscape:cy="79.451883"
     inkscape:window-x="1680"
     inkscape:window-y="17"
     inkscape:window-maximized="0"
     inkscape:current-layer="svg15144" />
  <g
     id="g16599">
    <rect
       x="0"
       y="0"
       width="41"
       height="41"
       id="rect15147"
       style="fill:#ffffff" />
    <path
       id="rect15150"
       transform="scale(0.26661547,0.26661547)"
       d="M 15 15 L 15 18.75 L 15 22.5 L 15 26.25 L 15 30 L 15 33.75 L 15 37.5 L 15 41.25 L 41.25 41.25 L 41.25 37.5 L 41.25 33.75 L 41.25 30 L 41.25 26.25 L 41.25 22.5 L 41.25 18.75 L 41.25 15 L 15 15 z M 45 15 L 45 18.75 L 45 22.5 L 45 26.25 L 52.5 26.25 L 52.5 30 L 52.5 33.75 L 63.75 33.75 L 63.75 37.5 L 67.5 37.5 L 67.5 33.75 L 71.25 33.75 L 71.25 30 L 63.75 30 L 63.75 26.25 L 63.75 22.5 L 63.75 18.75 L 52.5 18.75 L 52.5 22.5 L 48.75 22.5 L 48.75 18.75 L 52.5 18.75 L 52.5 15 L 45 15 z M 71.25 33.75 L 71.25 37.5 L 75 37.5 L 75 41.25 L 71.25 41.25 L 71.25 45 L 78.75 45 L 78.75 41.25 L 78.75 37.5 L 78.75 33.75 L 78.75 30 L 78.75 26.25 L 78.75 22.5 L 82.53125 22.5 L 82.53125 18.75 L 86.28125 18.75 L 86.28125 15 L 78.75 15 L 78.75 18.75 L 71.25 18.75 L 71.25 22.5 L 67.5 22.5 L 67.5 26.25 L 75 26.25 L 75 30 L 75 33.75 L 71.25 33.75 z M 71.25 45 L 67.5 45 L 67.5 48.75 L 71.25 48.75 L 71.25 45 z M 71.25 41.25 L 71.25 37.5 L 67.5 37.5 L 67.5 41.25 L 71.25 41.25 z M 63.75 37.5 L 60 37.5 L 60 41.25 L 60 45 L 60 48.75 L 63.75 48.75 L 63.75 45 L 63.75 41.25 L 63.75 37.5 z M 93.78125 15 L 93.78125 18.75 L 90.03125 18.75 L 90.03125 22.5 L 93.78125 22.5 L 93.78125 26.25 L 97.53125 26.25 L 97.53125 30 L 105.03125 30 L 105.03125 26.25 L 105.03125 22.5 L 101.28125 22.5 L 101.28125 18.75 L 97.53125 18.75 L 97.53125 15 L 93.78125 15 z M 101.28125 18.75 L 108.78125 18.75 L 108.78125 15 L 101.28125 15 L 101.28125 18.75 z M 105.03125 30 L 105.03125 33.75 L 108.78125 33.75 L 108.78125 30 L 105.03125 30 z M 112.53125 15 L 112.53125 18.75 L 112.53125 22.5 L 112.53125 26.25 L 112.53125 30 L 112.53125 33.75 L 112.53125 37.5 L 112.53125 41.25 L 138.78125 41.25 L 138.78125 37.5 L 138.78125 33.75 L 138.78125 30 L 138.78125 26.25 L 138.78125 22.5 L 138.78125 18.75 L 138.78125 15 L 112.53125 15 z M 18.75 18.75 L 37.5 18.75 L 37.5 22.5 L 37.5 26.25 L 37.5 30 L 37.5 33.75 L 37.5 37.5 L 18.75 37.5 L 18.75 33.75 L 18.75 30 L 18.75 26.25 L 18.75 22.5 L 18.75 18.75 z M 116.28125 18.75 L 135.03125 18.75 L 135.03125 22.5 L 135.03125 26.25 L 135.03125 30 L 135.03125 33.75 L 135.03125 37.5 L 116.28125 37.5 L 116.28125 33.75 L 116.28125 30 L 116.28125 26.25 L 116.28125 22.5 L 116.28125 18.75 z M 22.5 22.5 L 22.5 26.25 L 22.5 30 L 22.5 33.75 L 33.75 33.75 L 33.75 30 L 33.75 26.25 L 33.75 22.5 L 22.5 22.5 z M 56.25 22.5 L 60 22.5 L 60 26.25 L 60 30 L 56.25 30 L 56.25 26.25 L 56.25 22.5 z M 120.03125 22.5 L 120.03125 26.25 L 120.03125 30 L 120.03125 33.75 L 131.28125 33.75 L 131.28125 30 L 131.28125 26.25 L 131.28125 22.5 L 120.03125 22.5 z M 86.28125 26.25 L 86.28125 30 L 82.53125 30 L 82.53125 33.75 L 90.03125 33.75 L 90.03125 30 L 90.03125 26.25 L 86.28125 26.25 z M 45 33.75 L 45 37.5 L 45 41.25 L 45 45 L 45 48.75 L 41.25 48.75 L 41.25 52.5 L 30 52.5 L 30 56.25 L 41.25 56.25 L 41.25 60 L 37.5 60 L 37.5 63.75 L 41.25 63.75 L 41.25 67.5 L 33.75 67.5 L 33.75 71.25 L 30 71.25 L 30 75 L 33.75 75 L 33.75 78.75 L 41.25 78.75 L 41.25 75 L 37.5 75 L 37.5 71.25 L 41.25 71.25 L 41.25 75 L 45 75 L 45 78.75 L 52.5 78.75 L 52.5 75 L 56.25 75 L 56.25 71.25 L 48.75 71.25 L 48.75 67.5 L 45 67.5 L 45 63.75 L 45 60 L 45 56.25 L 45 52.5 L 48.75 52.5 L 48.75 48.75 L 52.5 48.75 L 52.5 45 L 48.75 45 L 48.75 41.25 L 48.75 37.5 L 48.75 33.75 L 45 33.75 z M 52.5 45 L 56.25 45 L 56.25 41.25 L 56.25 37.5 L 52.5 37.5 L 52.5 41.25 L 52.5 45 z M 52.5 48.75 L 52.5 52.5 L 48.75 52.5 L 48.75 56.25 L 52.5 56.25 L 52.5 60 L 52.5 63.75 L 48.75 63.75 L 48.75 67.5 L 56.25 67.5 L 56.25 71.25 L 60 71.25 L 60 75 L 63.75 75 L 63.75 71.25 L 67.5 71.25 L 67.5 67.5 L 67.5 63.75 L 63.75 63.75 L 63.75 67.5 L 60 67.5 L 60 63.75 L 56.25 63.75 L 56.25 60 L 60 60 L 60 56.25 L 56.25 56.25 L 56.25 52.5 L 56.25 48.75 L 52.5 48.75 z M 60 56.25 L 63.75 56.25 L 63.75 60 L 67.5 60 L 67.5 63.75 L 75 63.75 L 75 60 L 78.75 60 L 78.75 56.25 L 75 56.25 L 75 52.5 L 71.25 52.5 L 71.25 56.25 L 67.5 56.25 L 67.5 52.5 L 60 52.5 L 60 56.25 z M 75 52.5 L 78.75 52.5 L 78.75 48.75 L 75 48.75 L 75 52.5 z M 78.75 52.5 L 78.75 56.25 L 90.03125 56.25 L 90.03125 60 L 93.78125 60 L 93.78125 56.25 L 93.78125 52.5 L 90.03125 52.5 L 90.03125 48.75 L 86.28125 48.75 L 86.28125 45 L 82.53125 45 L 82.53125 48.75 L 82.53125 52.5 L 78.75 52.5 z M 86.28125 45 L 90.03125 45 L 90.03125 41.25 L 86.28125 41.25 L 86.28125 45 z M 86.28125 41.25 L 86.28125 37.5 L 82.53125 37.5 L 82.53125 41.25 L 86.28125 41.25 z M 90.03125 41.25 L 93.78125 41.25 L 93.78125 37.5 L 90.03125 37.5 L 90.03125 41.25 z M 93.78125 41.25 L 93.78125 45 L 97.53125 45 L 97.53125 41.25 L 93.78125 41.25 z M 97.53125 41.25 L 101.28125 41.25 L 101.28125 37.5 L 101.28125 33.75 L 97.53125 33.75 L 97.53125 37.5 L 97.53125 41.25 z M 97.53125 45 L 97.53125 48.75 L 101.28125 48.75 L 101.28125 45 L 97.53125 45 z M 101.28125 48.75 L 101.28125 52.5 L 116.28125 52.5 L 116.28125 48.75 L 120.03125 48.75 L 120.03125 45 L 108.78125 45 L 108.78125 41.25 L 108.78125 37.5 L 105.03125 37.5 L 105.03125 41.25 L 105.03125 45 L 105.03125 48.75 L 101.28125 48.75 z M 116.28125 52.5 L 116.28125 56.25 L 120.03125 56.25 L 120.03125 52.5 L 116.28125 52.5 z M 116.28125 56.25 L 112.53125 56.25 L 112.53125 60 L 116.28125 60 L 116.28125 56.25 z M 116.28125 60 L 116.28125 63.75 L 120.03125 63.75 L 120.03125 60 L 116.28125 60 z M 120.03125 63.75 L 120.03125 67.5 L 116.28125 67.5 L 116.28125 63.75 L 112.53125 63.75 L 112.53125 67.5 L 108.78125 67.5 L 108.78125 71.25 L 101.28125 71.25 L 101.28125 67.5 L 97.53125 67.5 L 97.53125 71.25 L 93.78125 71.25 L 93.78125 75 L 97.53125 75 L 97.53125 78.75 L 101.28125 78.75 L 101.28125 75 L 105.03125 75 L 105.03125 78.75 L 101.28125 78.75 L 101.28125 82.53125 L 105.03125 82.53125 L 105.03125 86.28125 L 97.53125 86.28125 L 97.53125 82.53125 L 97.53125 78.75 L 90.03125 78.75 L 90.03125 82.53125 L 93.78125 82.53125 L 93.78125 86.28125 L 93.78125 90.03125 L 97.53125 90.03125 L 97.53125 93.78125 L 97.53125 97.53125 L 97.53125 101.28125 L 93.78125 101.28125 L 93.78125 97.53125 L 90.03125 97.53125 L 90.03125 93.78125 L 86.28125 93.78125 L 86.28125 97.53125 L 82.53125 97.53125 L 82.53125 93.78125 L 71.25 93.78125 L 71.25 90.03125 L 75 90.03125 L 75 86.28125 L 78.75 86.28125 L 78.75 82.53125 L 86.28125 82.53125 L 86.28125 78.75 L 78.75 78.75 L 78.75 75 L 86.28125 75 L 86.28125 71.25 L 86.28125 67.5 L 90.03125 67.5 L 90.03125 71.25 L 93.78125 71.25 L 93.78125 67.5 L 93.78125 63.75 L 82.53125 63.75 L 82.53125 60 L 78.75 60 L 78.75 63.75 L 75 63.75 L 75 67.5 L 71.25 67.5 L 71.25 71.25 L 75 71.25 L 75 75 L 71.25 75 L 71.25 78.75 L 75 78.75 L 75 82.53125 L 71.25 82.53125 L 71.25 86.28125 L 67.5 86.28125 L 67.5 90.03125 L 67.5 93.78125 L 63.75 93.78125 L 63.75 90.03125 L 60 90.03125 L 60 93.78125 L 56.25 93.78125 L 56.25 90.03125 L 52.5 90.03125 L 52.5 93.78125 L 52.5 97.53125 L 52.5 101.28125 L 48.75 101.28125 L 48.75 105.03125 L 45 105.03125 L 45 108.78125 L 45 112.53125 L 52.5 112.53125 L 52.5 108.78125 L 56.25 108.78125 L 56.25 105.03125 L 60 105.03125 L 60 101.28125 L 60 97.53125 L 67.5 97.53125 L 67.5 101.28125 L 75 101.28125 L 75 97.53125 L 78.75 97.53125 L 78.75 101.28125 L 90.03125 101.28125 L 90.03125 105.03125 L 90.03125 108.78125 L 93.78125 108.78125 L 93.78125 105.03125 L 97.53125 105.03125 L 97.53125 108.78125 L 93.78125 108.78125 L 93.78125 112.53125 L 90.03125 112.53125 L 90.03125 108.78125 L 86.28125 108.78125 L 86.28125 112.53125 L 82.53125 112.53125 L 82.53125 116.28125 L 90.03125 116.28125 L 90.03125 120.03125 L 82.53125 120.03125 L 82.53125 123.78125 L 82.53125 127.53125 L 75 127.53125 L 75 131.28125 L 71.25 131.28125 L 71.25 135.03125 L 75 135.03125 L 75 138.78125 L 86.28125 138.78125 L 86.28125 135.03125 L 78.75 135.03125 L 78.75 131.28125 L 90.03125 131.28125 L 90.03125 127.53125 L 86.28125 127.53125 L 86.28125 123.78125 L 90.03125 123.78125 L 90.03125 127.53125 L 93.78125 127.53125 L 93.78125 123.78125 L 97.53125 123.78125 L 97.53125 120.03125 L 105.03125 120.03125 L 105.03125 123.78125 L 120.03125 123.78125 L 120.03125 127.53125 L 123.78125 127.53125 L 123.78125 131.28125 L 127.53125 131.28125 L 127.53125 127.53125 L 127.53125 123.78125 L 123.78125 123.78125 L 123.78125 120.03125 L 131.28125 120.03125 L 131.28125 123.78125 L 131.28125 127.53125 L 135.03125 127.53125 L 135.03125 123.78125 L 138.78125 123.78125 L 138.78125 120.03125 L 138.78125 116.28125 L 135.03125 116.28125 L 135.03125 112.53125 L 138.78125 112.53125 L 138.78125 108.78125 L 131.28125 108.78125 L 131.28125 112.53125 L 127.53125 112.53125 L 127.53125 116.28125 L 123.78125 116.28125 L 123.78125 112.53125 L 123.78125 108.78125 L 123.78125 105.03125 L 131.28125 105.03125 L 131.28125 101.28125 L 135.03125 101.28125 L 135.03125 97.53125 L 131.28125 97.53125 L 131.28125 93.78125 L 127.53125 93.78125 L 127.53125 90.03125 L 131.28125 90.03125 L 131.28125 86.28125 L 135.03125 86.28125 L 135.03125 82.53125 L 127.53125 82.53125 L 127.53125 86.28125 L 123.78125 86.28125 L 123.78125 90.03125 L 120.03125 90.03125 L 120.03125 93.78125 L 123.78125 93.78125 L 123.78125 97.53125 L 116.28125 97.53125 L 116.28125 101.28125 L 120.03125 101.28125 L 120.03125 105.03125 L 105.03125 105.03125 L 105.03125 101.28125 L 108.78125 101.28125 L 108.78125 97.53125 L 101.28125 97.53125 L 101.28125 93.78125 L 108.78125 93.78125 L 108.78125 90.03125 L 112.53125 90.03125 L 112.53125 86.28125 L 108.78125 86.28125 L 108.78125 82.53125 L 116.28125 82.53125 L 116.28125 78.75 L 112.53125 78.75 L 112.53125 75 L 116.28125 75 L 116.28125 71.25 L 120.03125 71.25 L 120.03125 75 L 116.28125 75 L 116.28125 78.75 L 123.78125 78.75 L 123.78125 75 L 123.78125 71.25 L 127.53125 71.25 L 127.53125 67.5 L 131.28125 67.5 L 131.28125 63.75 L 120.03125 63.75 z M 131.28125 67.5 L 131.28125 71.25 L 135.03125 71.25 L 135.03125 67.5 L 131.28125 67.5 z M 135.03125 67.5 L 138.78125 67.5 L 138.78125 63.75 L 135.03125 63.75 L 135.03125 67.5 z M 131.28125 71.25 L 127.53125 71.25 L 127.53125 75 L 131.28125 75 L 131.28125 71.25 z M 131.28125 75 L 131.28125 78.75 L 135.03125 78.75 L 135.03125 82.53125 L 138.78125 82.53125 L 138.78125 78.75 L 138.78125 75 L 131.28125 75 z M 108.78125 93.78125 L 108.78125 97.53125 L 112.53125 97.53125 L 112.53125 93.78125 L 108.78125 93.78125 z M 120.03125 90.03125 L 120.03125 86.28125 L 116.28125 86.28125 L 116.28125 90.03125 L 120.03125 90.03125 z M 120.03125 86.28125 L 123.78125 86.28125 L 123.78125 82.53125 L 120.03125 82.53125 L 120.03125 86.28125 z M 135.03125 86.28125 L 135.03125 90.03125 L 138.78125 90.03125 L 138.78125 86.28125 L 135.03125 86.28125 z M 135.03125 97.53125 L 138.78125 97.53125 L 138.78125 93.78125 L 135.03125 93.78125 L 135.03125 97.53125 z M 135.03125 101.28125 L 135.03125 105.03125 L 138.78125 105.03125 L 138.78125 101.28125 L 135.03125 101.28125 z M 127.53125 131.28125 L 127.53125 135.03125 L 127.53125 138.78125 L 135.03125 138.78125 L 135.03125 135.03125 L 131.28125 135.03125 L 131.28125 131.28125 L 127.53125 131.28125 z M 97.53125 123.78125 L 97.53125 127.53125 L 93.78125 127.53125 L 93.78125 131.28125 L 90.03125 131.28125 L 90.03125 135.03125 L 97.53125 135.03125 L 97.53125 131.28125 L 101.28125 131.28125 L 101.28125 127.53125 L 101.28125 123.78125 L 97.53125 123.78125 z M 101.28125 131.28125 L 101.28125 135.03125 L 101.28125 138.78125 L 112.53125 138.78125 L 112.53125 135.03125 L 112.53125 131.28125 L 116.28125 131.28125 L 116.28125 127.53125 L 105.03125 127.53125 L 105.03125 131.28125 L 108.78125 131.28125 L 108.78125 135.03125 L 105.03125 135.03125 L 105.03125 131.28125 L 101.28125 131.28125 z M 116.28125 131.28125 L 116.28125 135.03125 L 120.03125 135.03125 L 120.03125 131.28125 L 116.28125 131.28125 z M 71.25 135.03125 L 67.5 135.03125 L 67.5 138.78125 L 71.25 138.78125 L 71.25 135.03125 z M 67.5 135.03125 L 67.5 131.28125 L 67.5 127.53125 L 75 127.53125 L 75 123.78125 L 78.75 123.78125 L 78.75 120.03125 L 82.53125 120.03125 L 82.53125 116.28125 L 78.75 116.28125 L 78.75 112.53125 L 75 112.53125 L 75 108.78125 L 71.25 108.78125 L 71.25 112.53125 L 67.5 112.53125 L 67.5 108.78125 L 71.25 108.78125 L 71.25 105.03125 L 63.75 105.03125 L 63.75 108.78125 L 56.25 108.78125 L 56.25 112.53125 L 52.5 112.53125 L 52.5 116.28125 L 56.25 116.28125 L 56.25 120.03125 L 60 120.03125 L 60 116.28125 L 60 112.53125 L 63.75 112.53125 L 63.75 116.28125 L 67.5 116.28125 L 67.5 120.03125 L 60 120.03125 L 60 123.78125 L 63.75 123.78125 L 63.75 127.53125 L 60 127.53125 L 60 131.28125 L 60 135.03125 L 67.5 135.03125 z M 60 135.03125 L 56.25 135.03125 L 56.25 138.78125 L 60 138.78125 L 60 135.03125 z M 56.25 135.03125 L 56.25 131.28125 L 52.5 131.28125 L 52.5 127.53125 L 48.75 127.53125 L 48.75 123.78125 L 48.75 120.03125 L 45 120.03125 L 45 123.78125 L 45 127.53125 L 45 131.28125 L 48.75 131.28125 L 48.75 135.03125 L 56.25 135.03125 z M 60 127.53125 L 60 123.78125 L 56.25 123.78125 L 56.25 127.53125 L 60 127.53125 z M 45 105.03125 L 45 101.28125 L 41.25 101.28125 L 41.25 105.03125 L 45 105.03125 z M 41.25 105.03125 L 37.5 105.03125 L 37.5 101.28125 L 41.25 101.28125 L 41.25 97.53125 L 37.5 97.53125 L 37.5 93.78125 L 33.75 93.78125 L 33.75 90.03125 L 37.5 90.03125 L 37.5 86.28125 L 33.75 86.28125 L 33.75 82.53125 L 26.25 82.53125 L 26.25 86.28125 L 30 86.28125 L 30 90.03125 L 30 93.78125 L 30 97.53125 L 33.75 97.53125 L 33.75 101.28125 L 30 101.28125 L 30 105.03125 L 33.75 105.03125 L 33.75 108.78125 L 41.25 108.78125 L 41.25 105.03125 z M 26.25 86.28125 L 22.5 86.28125 L 22.5 90.03125 L 15 90.03125 L 15 93.78125 L 15 97.53125 L 15 101.28125 L 15 105.03125 L 15 108.78125 L 18.75 108.78125 L 18.75 105.03125 L 18.75 101.28125 L 18.75 97.53125 L 18.75 93.78125 L 22.5 93.78125 L 22.5 97.53125 L 26.25 97.53125 L 26.25 93.78125 L 26.25 90.03125 L 26.25 86.28125 z M 22.5 86.28125 L 22.5 82.53125 L 26.25 82.53125 L 26.25 78.75 L 18.75 78.75 L 18.75 75 L 18.75 71.25 L 15 71.25 L 15 75 L 15 78.75 L 15 82.53125 L 15 86.28125 L 22.5 86.28125 z M 37.5 86.28125 L 45 86.28125 L 45 82.53125 L 37.5 82.53125 L 37.5 86.28125 z M 45 86.28125 L 45 90.03125 L 37.5 90.03125 L 37.5 93.78125 L 45 93.78125 L 45 97.53125 L 45 101.28125 L 48.75 101.28125 L 48.75 97.53125 L 48.75 93.78125 L 48.75 90.03125 L 48.75 86.28125 L 45 86.28125 z M 71.25 75 L 71.25 71.25 L 67.5 71.25 L 67.5 75 L 71.25 75 z M 67.5 75 L 63.75 75 L 63.75 78.75 L 67.5 78.75 L 67.5 75 z M 63.75 78.75 L 56.25 78.75 L 56.25 82.53125 L 63.75 82.53125 L 63.75 78.75 z M 56.25 82.53125 L 52.5 82.53125 L 52.5 86.28125 L 56.25 86.28125 L 56.25 82.53125 z M 93.78125 63.75 L 101.28125 63.75 L 101.28125 60 L 93.78125 60 L 93.78125 63.75 z M 101.28125 63.75 L 101.28125 67.5 L 105.03125 67.5 L 105.03125 63.75 L 101.28125 63.75 z M 105.03125 63.75 L 112.53125 63.75 L 112.53125 60 L 105.03125 60 L 105.03125 63.75 z M 90.03125 93.78125 L 93.78125 93.78125 L 93.78125 90.03125 L 90.03125 90.03125 L 90.03125 93.78125 z M 101.28125 52.5 L 97.53125 52.5 L 97.53125 56.25 L 101.28125 56.25 L 101.28125 52.5 z M 93.78125 45 L 90.03125 45 L 90.03125 48.75 L 93.78125 48.75 L 93.78125 45 z M 30 71.25 L 30 67.5 L 26.25 67.5 L 26.25 71.25 L 30 71.25 z M 26.25 71.25 L 22.5 71.25 L 22.5 75 L 26.25 75 L 26.25 71.25 z M 26.25 67.5 L 26.25 63.75 L 30 63.75 L 30 60 L 30 56.25 L 26.25 56.25 L 26.25 60 L 22.5 60 L 22.5 56.25 L 18.75 56.25 L 18.75 52.5 L 22.5 52.5 L 22.5 48.75 L 15 48.75 L 15 52.5 L 15 56.25 L 15 60 L 15 63.75 L 22.5 63.75 L 22.5 67.5 L 26.25 67.5 z M 22.5 48.75 L 26.25 48.75 L 26.25 52.5 L 30 52.5 L 30 48.75 L 33.75 48.75 L 33.75 45 L 22.5 45 L 22.5 48.75 z M 26.25 52.5 L 22.5 52.5 L 22.5 56.25 L 26.25 56.25 L 26.25 52.5 z M 30 63.75 L 30 67.5 L 33.75 67.5 L 33.75 63.75 L 30 63.75 z M 41.25 48.75 L 41.25 45 L 37.5 45 L 37.5 48.75 L 41.25 48.75 z M 127.53125 45 L 127.53125 48.75 L 127.53125 52.5 L 131.28125 52.5 L 131.28125 48.75 L 135.03125 48.75 L 135.03125 52.5 L 138.78125 52.5 L 138.78125 48.75 L 138.78125 45 L 127.53125 45 z M 135.03125 52.5 L 131.28125 52.5 L 131.28125 56.25 L 135.03125 56.25 L 135.03125 52.5 z M 131.28125 56.25 L 127.53125 56.25 L 127.53125 52.5 L 123.78125 52.5 L 123.78125 56.25 L 123.78125 60 L 131.28125 60 L 131.28125 56.25 z M 78.75 67.5 L 82.53125 67.5 L 82.53125 71.25 L 78.75 71.25 L 78.75 67.5 z M 82.53125 86.28125 L 82.53125 90.03125 L 86.28125 90.03125 L 86.28125 86.28125 L 82.53125 86.28125 z M 22.5 105.03125 L 22.5 108.78125 L 26.25 108.78125 L 26.25 105.03125 L 22.5 105.03125 z M 78.75 105.03125 L 78.75 108.78125 L 82.53125 108.78125 L 82.53125 105.03125 L 78.75 105.03125 z M 101.28125 108.78125 L 105.03125 108.78125 L 105.03125 112.53125 L 101.28125 112.53125 L 101.28125 116.28125 L 97.53125 116.28125 L 97.53125 112.53125 L 101.28125 112.53125 L 101.28125 108.78125 z M 108.78125 108.78125 L 120.03125 108.78125 L 120.03125 112.53125 L 120.03125 116.28125 L 120.03125 120.03125 L 108.78125 120.03125 L 108.78125 116.28125 L 108.78125 112.53125 L 108.78125 108.78125 z M 15 112.53125 L 15 116.28125 L 15 120.03125 L 15 123.78125 L 15 127.53125 L 15 131.28125 L 15 135.03125 L 15 138.78125 L 41.25 138.78125 L 41.25 135.03125 L 41.25 131.28125 L 41.25 127.53125 L 41.25 123.78125 L 41.25 120.03125 L 41.25 116.28125 L 41.25 112.53125 L 15 112.53125 z M 112.53125 112.53125 L 112.53125 116.28125 L 116.28125 116.28125 L 116.28125 112.53125 L 112.53125 112.53125 z M 18.75 116.28125 L 37.5 116.28125 L 37.5 120.03125 L 37.5 123.78125 L 37.5 127.53125 L 37.5 131.28125 L 37.5 135.03125 L 18.75 135.03125 L 18.75 131.28125 L 18.75 127.53125 L 18.75 123.78125 L 18.75 120.03125 L 18.75 116.28125 z M 71.25 116.28125 L 75 116.28125 L 75 120.03125 L 71.25 120.03125 L 71.25 116.28125 z M 22.5 120.03125 L 22.5 123.78125 L 22.5 127.53125 L 22.5 131.28125 L 33.75 131.28125 L 33.75 127.53125 L 33.75 123.78125 L 33.75 120.03125 L 22.5 120.03125 z "
       style="fill:#000000" />
  </g>
</svg>
